<svg width="44" height="44" viewBox="0 0 44 44" fill="none" xmlns="http://www.w3.org/2000/svg">
<path d="M21.9896 44C34.1341 44 43.9791 34.1503 43.9791 22C43.9791 9.84974 34.1341 0 21.9896 0C9.84506 0 0 9.84974 0 22C0 34.1503 9.84506 44 21.9896 44Z" fill="url(#paint0_linear)"/>
<path d="M13.082 29.3799C13.082 31.0555 16.5518 30.393 21.5861 30.393C26.6156 30.393 31.3043 31.0603 31.3043 29.3799C31.3043 27.7042 27.2251 26.3406 22.1956 26.3406C17.1613 26.3454 13.082 27.7042 13.082 29.3799Z" fill="#283135"/>
<path d="M9.87695 21.611C9.87695 23.037 11.0335 24.1941 12.4589 24.1941C13.8842 24.1941 15.0408 23.037 15.0408 21.611C15.0408 20.185 13.8842 19.0278 12.4589 19.0278C11.0335 19.0278 9.87695 20.185 9.87695 21.611Z" fill="#283135"/>
<path d="M17.9873 19.6809C14.4887 19.6809 10.3615 18.7399 8.11552 15.8734C7.58282 15.1916 6.6326 16.1519 7.1605 16.8289C9.61285 19.9642 14.1624 21.0349 17.9825 21.0301C18.8559 21.0349 18.8559 19.6809 17.9873 19.6809Z" fill="#283135"/>
<path d="M32.3943 21.6112C32.3943 23.0372 31.2377 24.1944 29.8124 24.1944C28.3871 24.1944 27.2305 23.0372 27.2305 21.6112C27.2305 20.1852 28.3871 19.0281 29.8124 19.0281C31.2377 19.0281 32.3943 20.1852 32.3943 21.6112Z" fill="#283135"/>
<path d="M24.2839 21.035C28.104 21.035 32.6584 19.9691 35.1059 16.8338C35.6338 16.1568 34.6884 15.1965 34.1509 15.8783C31.9097 18.7447 27.7777 19.6858 24.2791 19.6858C23.4153 19.681 23.4153 21.035 24.2839 21.035Z" fill="#283135"/>
<defs>
<linearGradient id="paint0_linear" x1="21.9897" y1="46.0724" x2="21.9897" y2="-3.62746" gradientUnits="userSpaceOnUse">
<stop stop-color="#F1CC30"/>
<stop offset="1" stop-color="#962349"/>
</linearGradient>
</defs>
</svg>
