<svg width="44" height="44" viewBox="0 0 44 44" fill="none" xmlns="http://www.w3.org/2000/svg">
<path d="M21.9896 44C34.1341 44 43.9791 34.1503 43.9791 22C43.9791 9.84974 34.1341 0 21.9896 0C9.84506 0 0 9.84974 0 22C0 34.1503 9.84506 44 21.9896 44Z" fill="#F1CC30"/>
<path d="M9.30078 23.2244C9.66072 29.9367 15.1941 35.2711 21.9897 35.2711C28.7852 35.2711 34.3234 29.9367 34.6785 23.2244H9.30078Z" fill="#283135"/>
<mask id="mask0" mask-type="alpha" maskUnits="userSpaceOnUse" x="9" y="23" width="26" height="13">
<path d="M9.30078 23.2244C9.66072 29.9367 15.1941 35.2711 21.9897 35.2711C28.7852 35.2711 34.3234 29.9367 34.6785 23.2244H9.30078Z" fill="#283135"/>
</mask>
<g mask="url(#mask0)">
<path d="M22.551 32.0061C22.551 35.3431 19.8443 38.0511 16.5089 38.0511C13.1735 38.0511 10.4668 35.3431 10.4668 32.0061C10.4668 28.6692 13.1735 25.9612 16.5089 25.9612C19.8491 25.9612 22.551 28.6692 22.551 32.0061Z" fill="#DB5152"/>
<path d="M32.9943 32.0061C32.9943 35.3431 30.2876 38.0511 26.9522 38.0511C23.6168 38.0511 20.9102 35.3431 20.9102 32.0061C20.9102 28.6692 23.6168 25.9612 26.9522 25.9612C30.2876 25.9612 32.9943 28.6692 32.9943 32.0061Z" fill="#DB5152"/>
</g>
<path d="M8.46567 19.7097C10.6349 19.388 12.8377 18.4902 14.9445 17.8804C15.41 17.7459 15.4052 17.1938 15.0693 16.9345C13.308 15.5949 11.5515 14.2505 9.79023 12.9109C9.26233 12.5076 8.74881 13.4055 9.26712 13.804C11.0284 15.1436 12.7849 16.488 14.5461 17.8276C14.5893 17.5107 14.6277 17.1986 14.6709 16.8817C12.5641 17.4915 10.3613 18.3893 8.19212 18.711C7.53464 18.8119 7.81299 19.8057 8.46567 19.7097Z" fill="#283135"/>
<path d="M35.0476 18.711C32.8784 18.3893 30.6756 17.4915 28.5688 16.8817C28.612 17.1986 28.6504 17.5107 28.6936 17.8276C30.4549 16.488 32.2114 15.1436 33.9726 13.804C34.4957 13.4055 33.9822 12.5076 33.4495 12.9109C31.6883 14.2505 29.9318 15.5949 28.1705 16.9345C27.8298 17.1938 27.8297 17.7459 28.2953 17.8804C30.4021 18.4902 32.6049 19.388 34.7741 19.7097C35.422 19.8057 35.7003 18.8119 35.0476 18.711Z" fill="#283135"/>
</svg>
