<svg width="44" height="44" viewBox="0 0 44 44" fill="none" xmlns="http://www.w3.org/2000/svg">
<path d="M21.9896 44C34.1341 44 43.9791 34.1503 43.9791 22C43.9791 9.84974 34.1341 0 21.9896 0C9.84506 0 0 9.84974 0 22C0 34.1503 9.84506 44 21.9896 44Z" fill="#6889FA"/>
<path d="M18.0591 20.334V31.6653H11.873V20.2188C11.873 20.2188 18.1407 20.2187 18.0591 20.334Z" fill="white"/>
<path d="M30.4603 19.3833C27.5616 19.292 25.3108 18.8119 24.471 18.6102C24.9365 17.8612 25.7715 16.5456 26.8849 14.9084C28.6462 12.3156 26.1075 9.8669 25.5748 11.2689C25.2916 12.0083 24.159 13.6024 23.156 14.9468C21.3611 16.8865 19.6143 20.0987 19.6143 20.0987V31.67C19.6143 31.67 29.1549 34.5317 29.87 32.2654C30.5802 29.9992 34.1556 19.4985 30.4603 19.3833Z" fill="white"/>
</svg>
