<svg width="44" height="44" viewBox="0 0 44 44" fill="none" xmlns="http://www.w3.org/2000/svg">
<path d="M21.9896 44C34.134 44 43.9791 34.1503 43.9791 22C43.9791 9.84974 34.134 0 21.9896 0C9.84506 0 0 9.84974 0 22C0 34.1503 9.84506 44 21.9896 44Z" fill="#F1CC30"/>
<path d="M10.2461 20.4874C10.2461 21.9135 11.4027 23.0706 12.828 23.0706C14.2534 23.0706 15.41 21.9135 15.41 20.4874C15.41 19.0614 14.2534 17.9043 12.828 17.9043C11.4027 17.9043 10.2461 19.0614 10.2461 20.4874Z" fill="#283135"/>
<path d="M28.0078 20.4874C28.0078 21.9135 29.1644 23.0706 30.5897 23.0706C32.0151 23.0706 33.1717 21.9135 33.1717 20.4874C33.1717 19.0614 32.0151 17.9043 30.5897 17.9043C29.1644 17.9043 28.0078 19.0614 28.0078 20.4874Z" fill="#283135"/>
<path d="M8.49412 19.0616C9.79468 16.3056 12.6118 14.9516 15.4912 16.2192C16.0959 16.4832 16.619 15.595 16.0143 15.3261C12.6501 13.8425 9.17559 15.2061 7.60628 18.5382C7.31833 19.1384 8.21097 19.6666 8.49412 19.0616Z" fill="#283135"/>
<path d="M27.686 16.4208C30.3351 14.8508 33.373 15.3837 35.0526 18.0437C35.4078 18.6055 36.3004 18.0869 35.9453 17.5203C33.9776 14.3994 30.3207 13.6552 27.1629 15.523C26.5918 15.8687 27.1149 16.7617 27.686 16.4208Z" fill="#283135"/>
<path d="M15.9909 32.3998C16.8835 31.1562 18.1457 30.0471 19.4847 29.3173C23.3528 27.2143 26.7505 29.4229 29.2557 32.5006C29.6588 32.9951 30.3547 32.2893 29.9564 31.7996C27.4848 28.7651 24.0438 26.398 20.0558 27.9585C18.1073 28.7219 16.3508 30.2055 15.1367 31.9004C14.7671 32.419 15.6214 32.9135 15.9909 32.3998Z" fill="#283135"/>
<path d="M36.684 31.8813C36.684 31.8813 41.9678 41.4073 36.6648 41.3353C29.9173 41.2393 36.684 31.8813 36.684 31.8813Z" fill="#6889FA"/>
</svg>
