<svg width="44" height="44" viewBox="0 0 44 44" fill="none" xmlns="http://www.w3.org/2000/svg">
<path d="M21.9896 44C34.1341 44 43.9791 34.1503 43.9791 22C43.9791 9.84974 34.1341 0 21.9896 0C9.84506 0 0 9.84974 0 22C0 34.1503 9.84506 44 21.9896 44Z" fill="#D45165"/>
<path d="M33.124 18.3221C33.124 14.769 30.2446 11.8882 26.6932 11.8882C24.836 11.8882 23.1659 12.6804 21.9901 13.9384C20.8143 12.6804 19.149 11.8882 17.2869 11.8882C13.7356 11.8882 10.8561 14.769 10.8561 18.3221C10.8561 18.3221 10.8225 18.6678 10.9377 19.3015C11.0241 19.8825 11.1873 20.4347 11.4224 20.9532C12.3918 23.4067 14.9786 27.3967 21.8845 32.1165C21.8845 32.1165 30.0286 27.6896 32.4762 21.1309C32.8889 20.2762 33.124 19.3303 33.124 18.3221Z" fill="white"/>
</svg>
