<svg width="44" height="44" viewBox="0 0 44 44" fill="none" xmlns="http://www.w3.org/2000/svg">
<path d="M21.9895 44C34.134 44 43.9791 34.1503 43.9791 22C43.9791 9.84974 34.134 0 21.9895 0C9.84505 0 0 9.84974 0 22C0 34.1503 9.84505 44 21.9895 44Z" fill="#F1CC30"/>
<path d="M22.2725 37.9454C25.5803 37.9454 28.2618 34.1212 28.2618 29.4037C28.2618 24.6863 25.5803 20.8621 22.2725 20.8621C18.9647 20.8621 16.2832 24.6863 16.2832 29.4037C16.2832 34.1212 18.9647 37.9454 22.2725 37.9454Z" fill="#283135"/>
<path d="M28.4927 16.3824C29.0926 18.4038 30.8683 19.6617 32.452 19.1912C34.0357 18.7207 34.8372 16.6945 34.2325 14.6731C33.6326 12.6517 31.8569 11.3937 30.2732 11.8643C28.6895 12.3348 27.8929 14.3562 28.4927 16.3824Z" fill="#283135"/>
<path d="M9.11871 14.5433C8.42284 16.5359 9.12831 18.5957 10.6928 19.1383C12.2525 19.6808 14.0858 18.5093 14.7768 16.5119C15.4727 14.5193 14.7672 12.4595 13.2027 11.917C11.643 11.3744 9.81458 12.546 9.11871 14.5433Z" fill="#283135"/>
<path d="M27.2298 10.3806C27.6857 9.5644 28.3336 8.80578 29.0823 8.24882C31.5442 6.41949 33.8094 8.30644 35.3595 10.3806C35.753 10.9088 36.6505 10.395 36.2521 9.85729C34.6876 7.75908 32.3889 5.59845 29.5958 6.76039C28.2232 7.33176 27.0619 8.57052 26.342 9.85729C26.0109 10.4383 26.9035 10.9616 27.2298 10.3806Z" fill="#283135"/>
<path d="M8.64292 10.3806C9.09884 9.5644 9.74673 8.80578 10.4954 8.24882C12.9573 6.41949 15.2225 8.30644 16.7726 10.3806C17.1662 10.9088 18.0636 10.395 17.6653 9.85729C16.1008 7.75908 13.802 5.59845 11.0089 6.76039C9.63634 7.33176 8.47495 8.57052 7.75508 9.85729C7.42394 10.4383 8.31658 10.9616 8.64292 10.3806Z" fill="#283135"/>
</svg>
